<svg viewBox="0 0 800 500" xmlns="http://www.w3.org/2000/svg">
  <!-- Background with gradient -->
  <rect x="0" y="0" width="800" height="400" rx="20" ry="20" fill="#f8f9fa"/>
  <rect x="0" y="400" width="800" height="100" fill="#1a1e2e"/>
  
  <!-- City skyline background -->
  <rect x="50" y="100" width="40" height="200" fill="#e6e9ec" stroke="#d0d3d6" stroke-width="1"/>
  <rect x="110" y="140" width="60" height="160" fill="#e6e9ec" stroke="#d0d3d6" stroke-width="1"/>
  <rect x="190" y="80" width="50" height="220" fill="#e6e9ec" stroke="#d0d3d6" stroke-width="1"/>
  <rect x="260" y="120" width="70" height="180" fill="#e6e9ec" stroke="#d0d3d6" stroke-width="1"/>
  <rect x="350" y="150" width="40" height="150" fill="#e6e9ec" stroke="#d0d3d6" stroke-width="1"/>
  <rect x="600" y="120" width="80" height="180" fill="#e6e9ec" stroke="#d0d3d6" stroke-width="1"/>
  <rect x="700" y="160" width="60" height="140" fill="#e6e9ec" stroke="#d0d3d6" stroke-width="1"/>
  
  <!-- Windows -->
  <rect x="60" y="120" width="15" height="15" fill="#c4c8cc"/>
  <rect x="60" y="150" width="15" height="15" fill="#c4c8cc"/>
  <rect x="60" y="180" width="15" height="15" fill="#c4c8cc"/>
  <rect x="60" y="210" width="15" height="15" fill="#c4c8cc"/>
  <rect x="60" y="240" width="15" height="15" fill="#c4c8cc"/>
  
  <rect x="125" y="160" width="15" height="15" fill="#c4c8cc"/>
  <rect x="125" y="190" width="15" height="15" fill="#c4c8cc"/>
  <rect x="125" y="220" width="15" height="15" fill="#c4c8cc"/>
  <rect x="125" y="250" width="15" height="15" fill="#c4c8cc"/>
  
  <rect x="155" y="160" width="15" height="15" fill="#c4c8cc"/>
  <rect x="155" y="190" width="15" height="15" fill="#c4c8cc"/>
  <rect x="155" y="220" width="15" height="15" fill="#c4c8cc"/>
  <rect x="155" y="250" width="15" height="15" fill="#c4c8cc"/>
  
  <!-- Server icon -->
  <rect x="450" y="120" width="120" height="180" rx="5" ry="5" fill="#e6e9ec" stroke="#2962FF" stroke-width="2"/>
  <rect x="460" y="130" width="100" height="20" rx="3" ry="3" fill="#2962FF" opacity="0.8"/>
  <rect x="460" y="160" width="100" height="20" rx="3" ry="3" fill="#2962FF" opacity="0.8"/>
  <rect x="460" y="190" width="100" height="20" rx="3" ry="3" fill="#2962FF" opacity="0.8"/>
  <rect x="460" y="220" width="100" height="20" rx="3" ry="3" fill="#2962FF" opacity="0.8"/>
  <rect x="460" y="250" width="100" height="20" rx="3" ry="3" fill="#2962FF" opacity="0.8"/>
  <circle cx="480" cy="270" r="5" fill="#2962FF"/>
  <circle cx="500" cy="270" r="5" fill="#2962FF"/>
  <circle cx="520" cy="270" r="5" fill="#2962FF"/>
  
  <!-- Person working on computer -->
  <ellipse cx="280" cy="290" rx="40" ry="10" fill="#d0d3d6" opacity="0.5"/>
  <!-- Desk -->
  <rect x="250" y="280" width="60" height="5" fill="#c4c8cc"/>
  <rect x="255" y="285" width="5" height="15" fill="#c4c8cc"/>
  <rect x="300" y="285" width="5" height="15" fill="#c4c8cc"/>
  
  <!-- Person body -->
  <path d="M280,230 C270,230 260,240 265,260 L270,280 L290,280 L295,260 C300,240 290,230 280,230 Z" fill="#4285F4"/>
  
  <!-- Person head -->
  <circle cx="280" cy="220" r="15" fill="#F4B400"/>
  <path d="M272,215 L275,215 M285,215 L288,215" stroke="#333" stroke-width="1.5" stroke-linecap="round"/>
  <path d="M280,225 C283,225 285,223 285,223" stroke="#333" stroke-width="1.5" stroke-linecap="round"/>
  
  <!-- Arms -->
  <path d="M265,245 L245,260" stroke="#4285F4" stroke-width="6" stroke-linecap="round"/>
  <path d="M295,245 L315,250 L325,230" stroke="#4285F4" stroke-width="6" stroke-linecap="round"/>
  
  <!-- Computer -->
  <rect x="245" y="260" width="30" height="20" rx="2" ry="2" fill="#ffffff" stroke="#333" stroke-width="1"/>
  <rect x="259" y="280" width="15" height="3" rx="1" ry="1" fill="#333"/>
  
  <!-- Alert screens and data flow -->
  <rect x="320" y="150" width="80" height="60" rx="5" ry="5" fill="white" stroke="#2962FF" stroke-width="2"/>
  
  <!-- Alert icon -->
  <path d="M360,170 L345,190 L375,190 Z" fill="#EA4335"/>
  <rect x="358" y="175" width="4" height="8" fill="white"/>
  <circle cx="360" cy="187" r="2" fill="white"/>
  
  <!-- Connection lines -->
  <path d="M300,260 C340,260 340,180 400,180" stroke="#2962FF" stroke-width="2" stroke-dasharray="5,3" fill="none"/>
  <path d="M400,180 L450,180" stroke="#2962FF" stroke-width="2" fill="none"/>
  
  <!-- Data packet animations -->
  <circle cx="320" cy="260" r="5" fill="#2962FF"/>
  <circle cx="350" cy="230" r="5" fill="#2962FF"/>
  <circle cx="380" cy="180" r="5" fill="#2962FF"/>
  <circle cx="430" cy="180" r="5" fill="#2962FF"/>
  
  <!-- X marks for duplicate files -->
  <g transform="translate(420, 160)">
    <circle cx="0" cy="0" r="10" fill="#EA4335"/>
    <path d="M-5,-5 L5,5 M-5,5 L5,-5" stroke="white" stroke-width="2" stroke-linecap="round"/>
  </g>
  
  <!-- Check mark for unique files -->
  <g transform="translate(420, 200)">
    <circle cx="0" cy="0" r="10" fill="#34A853"/>
    <path d="M-5,0 L-2,4 L5,-4" stroke="white" stroke-width="2" stroke-linecap="round" stroke-linejoin="round"/>
  </g>
  
  <!-- Cloud upload/download icon -->
  <path d="M380,120 C375,100 355,95 340,105 C335,85 310,85 300,100 C285,95 270,105 275,120 C260,125 260,145 275,150 L400,150 C415,145 415,125 400,120 Z" fill="white" stroke="#2962FF" stroke-width="2"/>
  <path d="M340,120 L340,155 M330,145 L340,155 L350,145" stroke="#2962FF" stroke-width="2" stroke-linecap="round" stroke-linejoin="round"/>
  
  <!-- Bottom text area -->
  <text x="400" y="440" font-family="Arial, sans-serif" font-size="28" font-weight="bold" text-anchor="middle" fill="white">Data Download Duplication Alert System</text>
  <text x="400" y="470" font-family="Arial, sans-serif" font-size="16" text-anchor="middle" fill="#a0a8b8">A full-stack website that prevents duplicate data downloads using file hashing and real-time alerts.</text>
</svg>