<?xml version="1.0" encoding="UTF-8"?>
<svg xmlns="http://www.w3.org/2000/svg" viewBox="0 0 200 200">
  <!-- Background Circle -->
  <circle cx="100" cy="100" r="90" fill="#3366FF" opacity="0.9"/>
  
  <!-- Financial Chart Graph Lines -->
  <polyline points="40,120 60,100 80,110 100,70 120,90 140,60 160,50" 
          stroke="#FFFFFF" stroke-width="4" fill="none" stroke-linecap="round" stroke-linejoin="round"/>
  
  <!-- Data Points -->
  <circle cx="40" cy="120" r="6" fill="#61E786"/>
  <circle cx="60" cy="100" r="6" fill="#61E786"/>
  <circle cx="80" cy="110" r="6" fill="#61E786"/>
  <circle cx="100" cy="70" r="6" fill="#61E786"/>
  <circle cx="120" cy="90" r="6" fill="#61E786"/>
  <circle cx="140" cy="60" r="6" fill="#61E786"/>
  <circle cx="160" cy="50" r="6" fill="#61E786"/>
  
  <!-- AI Network Nodes -->
  <circle cx="60" cy="150" r="4" fill="#D667FF" opacity="0.8"/>
  <circle cx="90" cy="140" r="4" fill="#D667FF" opacity="0.8"/>
  <circle cx="120" cy="155" r="4" fill="#D667FF" opacity="0.8"/>
  <circle cx="150" cy="140" r="4" fill="#D667FF" opacity="0.8"/>
  
  <!-- AI Connection Lines -->
  <line x1="60" y1="150" x2="90" y2="140" stroke="#D667FF" stroke-width="2" opacity="0.6"/>
  <line x1="90" y1="140" x2="120" y2="155" stroke="#D667FF" stroke-width="2" opacity="0.6"/>
  <line x1="120" y1="155" x2="150" y2="140" stroke="#D667FF" stroke-width="2" opacity="0.6"/>
  
  <!-- Decorative Particles -->
  <circle cx="30" cy="40" r="1.5" fill="#FFFFFF" opacity="0.7"/>
  <circle cx="50" cy="30" r="1" fill="#FFFFFF" opacity="0.5"/>
  <circle cx="170" cy="50" r="1.2" fill="#FFFFFF" opacity="0.6"/>
  <circle cx="155" cy="30" r="1" fill="#FFFFFF" opacity="0.5"/>
  <circle cx="130" cy="25" r="1.5" fill="#FFFFFF" opacity="0.7"/>
  <circle cx="40" cy="170" r="1" fill="#FFFFFF" opacity="0.5"/>
  <circle cx="170" cy="160" r="1.5" fill="#FFFFFF" opacity="0.7"/>
  <circle cx="20" cy="100" r="1.2" fill="#FFFFFF" opacity="0.6"/>
  <circle cx="180" cy="100" r="1" fill="#FFFFFF" opacity="0.5"/>
  
  <!-- Additional decorative elements -->
  <circle cx="100" cy="100" r="85" stroke="#4477FF" stroke-width="1" fill="none" opacity="0.4"/>
  <circle cx="100" cy="100" r="75" stroke="#4477FF" stroke-width="0.5" fill="none" opacity="0.3"/>
</svg>