<?xml version="1.0" encoding="UTF-8"?>
<svg xmlns="http://www.w3.org/2000/svg" viewBox="0 0 800 450">
  <!-- Background -->
  <rect width="800" height="450" fill="#1a2b47" rx="15" ry="15"/>
  
  <!-- Decorative Elements -->
  <circle cx="700" cy="80" r="5" fill="#ffffff" opacity="0.3"/>
  <circle cx="720" cy="110" r="3" fill="#ffffff" opacity="0.2"/>
  <circle cx="690" cy="130" r="4" fill="#ffffff" opacity="0.2"/>
  <circle cx="730" cy="150" r="2" fill="#ffffff" opacity="0.3"/>
  <circle cx="100" cy="380" r="4" fill="#ffffff" opacity="0.2"/>
  <circle cx="80" cy="350" r="3" fill="#ffffff" opacity="0.3"/>
  <circle cx="60" cy="370" r="2" fill="#ffffff" opacity="0.2"/>
  
  <!-- Main Document -->
  <rect x="180" y="80" width="250" height="300" rx="6" ry="6" fill="#ffffff"/>
  
  <!-- Document Header -->
  <rect x="210" y="110" width="190" height="20" rx="3" ry="3" fill="#e0e0e0"/>
  <rect x="210" y="140" width="120" height="15" rx="3" ry="3" fill="#e0e0e0"/>
  <rect x="210" y="165" width="150" height="15" rx="3" ry="3" fill="#e0e0e0"/>
  
  <!-- Document Content -->
  <rect x="210" y="200" width="190" height="12" rx="2" ry="2" fill="#f0f0f0"/>
  <rect x="210" y="220" width="190" height="12" rx="2" ry="2" fill="#f0f0f0"/>
  <rect x="210" y="240" width="130" height="12" rx="2" ry="2" fill="#f0f0f0"/>
  
  <rect x="210" y="270" width="190" height="12" rx="2" ry="2" fill="#f0f0f0"/>
  <rect x="210" y="290" width="190" height="12" rx="2" ry="2" fill="#f0f0f0"/>
  <rect x="210" y="310" width="130" height="12" rx="2" ry="2" fill="#f0f0f0"/>
  
  <rect x="210" y="340" width="60" height="15" rx="3" ry="3" fill="#4385f5"/>
  
  <!-- Analytics Panel -->
  <rect x="470" y="80" width="220" height="300" rx="6" ry="6" fill="#2d3e5f"/>
  
  <!-- Skills Chart -->
  <circle cx="530" cy="140" r="40" fill="none" stroke="#50e991" stroke-width="8" stroke-dasharray="188.5 251.3"/>
  <text x="530" y="145" font-family="Arial" font-size="12" fill="#ffffff" text-anchor="middle">75%</text>
  <text x="530" y="165" font-family="Arial" font-size="9" fill="#e0e0e0" text-anchor="middle">Skills Match</text>
  
  <!-- Experience Bar -->
  <rect x="500" y="210" width="160" height="20" rx="10" ry="10" fill="#394b6a"/>
  <rect x="500" y="210" width="112" height="20" rx="10" ry="10" fill="#ff6b6b"/>
  <text x="580" y="224" font-family="Arial" font-size="10" fill="#ffffff" text-anchor="middle">Experience</text>
  
  <!-- Education Bar -->
  <rect x="500" y="250" width="160" height="20" rx="10" ry="10" fill="#394b6a"/>
  <rect x="500" y="250" width="144" height="20" rx="10" ry="10" fill="#ffcc29"/>
  <text x="580" y="264" font-family="Arial" font-size="10" fill="#ffffff" text-anchor="middle">Education</text>
  
  <!-- Keywords Bar -->
  <rect x="500" y="290" width="160" height="20" rx="10" ry="10" fill="#394b6a"/>
  <rect x="500" y="290" width="128" height="20" rx="10" ry="10" fill="#4385f5"/>
  <text x="580" y="304" font-family="Arial" font-size="10" fill="#ffffff" text-anchor="middle">Keywords</text>
  
  <!-- Magnifying Glass -->
  <circle cx="400" cy="225" r="35" fill="none" stroke="#4385f5" stroke-width="6"/>
  <line x1="425" y1="250" x2="445" y2="270" stroke="#4385f5" stroke-width="8" stroke-linecap="round"/>
  
  <!-- Connecting Lines -->
  <path d="M320 105 Q 380 50 470 105" stroke="#50e991" stroke-width="2" fill="none" stroke-dasharray="4,4"/>
  <path d="M320 220 Q 380 270 470 220" stroke="#ff6b6b" stroke-width="2" fill="none" stroke-dasharray="4,4"/>
  <path d="M320 290 Q 380 340 470 290" stroke="#4385f5" stroke-width="2" fill="none" stroke-dasharray="4,4"/>
  
  <!-- Keywords Highlight -->
  <rect x="222" y="220" width="30" height="12" rx="2" ry="2" fill="#4385f5" opacity="0.4"/>
  <rect x="294" y="240" width="24" height="12" rx="2" ry="2" fill="#ff6b6b" opacity="0.4"/>
  <rect x="260" y="290" width="28" height="12" rx="2" ry="2" fill="#ffcc29" opacity="0.4"/>
  
  <!-- AI Elements -->
  <line x1="640" y1="330" x2="680" y2="330" stroke="#50e991" stroke-width="2"/>
  <line x1="660" y1="310" x2="660" y2="350" stroke="#50e991" stroke-width="2"/>
  <circle cx="660" cy="330" r="8" fill="#50e991"/>
  <circle cx="640" cy="330" r="5" fill="#50e991"/>
  <circle cx="680" cy="330" r="5" fill="#50e991"/>
  <circle cx="660" cy="310" r="5" fill="#50e991"/>
  <circle cx="660" cy="350" r="5" fill="#50e991"/>
</svg>